<svg width="590" height="158" viewBox="0 0 590 158" fill="none" xmlns="http://www.w3.org/2000/svg">
<path fill-rule="evenodd" clip-rule="evenodd" d="M24.3832 24C30.3077 17.3138 38.8129 13.4863 47.7463 13.4863H99.1929C127.003 13.4863 140.93 47.1095 121.265 66.7739L76.0594 111.98L47.4822 111.968L106.965 52.4735C113.889 45.5494 108.985 33.7102 99.1929 33.7102H47.7463C44.6007 33.7102 41.6059 35.0579 39.5198 37.4122L26.828 51.7359H0L24.3832 24Z" fill="url(#paint0_linear_639_40)"/>
<path fill-rule="evenodd" clip-rule="evenodd" d="M111.363 134C105.439 140.687 96.9335 144.514 88.0002 144.514L36.5536 144.514C8.74384 144.514 -5.18335 110.891 14.4811 91.2265L59.687 46.0206L88.2642 46.0324L28.7816 105.527C21.8575 112.451 26.7614 124.29 36.5536 124.29H88.0002C91.1457 124.29 94.1405 122.942 96.2266 120.588L108.918 106.264H135.746L111.363 134Z" fill="url(#paint1_linear_639_40)"/>
<path d="M225.189 124H170.8V39.8369H188.617V107.941H225.189V124ZM252.309 124H236.015V61.4051H252.309V124ZM254.888 46.87C254.888 49.6051 253.872 51.9104 251.84 53.7859C249.886 55.5833 247.268 56.4819 243.986 56.4819C240.782 56.4819 238.164 55.5833 236.133 53.7859C234.179 51.9104 233.202 49.6051 233.202 46.87C233.202 43.9786 234.179 41.6342 236.133 39.8369C238.164 37.9614 240.782 37.0236 243.986 37.0236C247.268 37.0236 249.886 37.9614 251.84 39.8369C253.872 41.6342 254.888 43.9786 254.888 46.87ZM305.725 108.175V122.359C303.771 123.375 301.779 124.078 299.747 124.469C297.793 124.938 295.605 125.172 293.183 125.172C288.963 125.172 285.251 124.391 282.047 122.828C278.921 121.187 276.498 118.764 274.779 115.56C273.06 112.278 272.2 108.332 272.2 103.721V75.3542H259.541V61.4051H272.2V42.8846H288.377V61.4051H306.311V75.3542H288.377V99.9701C288.377 103.565 289.158 106.183 290.721 107.824C292.362 109.387 294.628 110.168 297.52 110.168C299.083 110.168 300.567 110.012 301.974 109.699C303.381 109.309 304.631 108.801 305.725 108.175ZM342.081 125.055C335.829 125.055 330.32 123.726 325.553 121.07C320.865 118.334 317.231 114.505 314.652 109.582C312.073 104.659 310.784 98.9542 310.784 92.4681C310.784 86.2165 312.112 80.6681 314.769 75.8231C317.426 70.978 321.099 67.1879 325.788 64.4528C330.476 61.6396 335.829 60.2329 341.847 60.2329C346.77 60.2329 351.224 61.1707 355.21 63.0462C359.273 64.8436 362.673 67.4224 365.408 70.7826C368.143 74.1429 370.096 78.0502 371.269 82.5045C372.441 86.8807 372.636 91.6085 371.855 96.688H320.396V86.3727H354.624C354.467 81.9966 353.178 78.5582 350.755 76.0575C348.411 73.4787 345.324 72.1893 341.495 72.1893C338.447 72.1893 335.869 72.9707 333.759 74.5336C331.649 76.0966 330.008 78.4019 328.835 81.4496C327.741 84.4191 327.194 88.092 327.194 92.4681C327.194 96.7662 327.741 100.4 328.835 103.369C329.929 106.339 331.571 108.605 333.759 110.168C335.947 111.731 338.604 112.513 341.729 112.513C345.324 112.513 348.294 111.653 350.638 109.934C352.983 108.215 354.624 105.831 355.561 102.783H371.738C369.94 109.817 366.463 115.287 361.305 119.194C356.147 123.101 349.739 125.055 342.081 125.055ZM446.652 124H380.306V109.934L423.326 55.1925H380.424V39.8369H445.246V54.1376L401.992 108.644H446.652V124ZM495.48 124V116.264C493.449 119.155 490.87 121.382 487.744 122.945C484.618 124.43 480.906 125.172 476.608 125.172C470.122 125.172 464.886 123.414 460.901 119.897C456.915 116.381 454.923 111.692 454.923 105.831C454.923 99.7357 457.345 95.086 462.19 91.882C467.035 88.6781 473.99 87.0761 483.055 87.0761C484.852 87.0761 486.572 87.1542 488.213 87.3105C489.854 87.3886 491.612 87.5449 493.488 87.7794V84.0284C493.488 80.5118 492.55 77.7767 490.674 75.8231C488.799 73.8694 486.142 72.8926 482.703 72.8926C479.187 72.8926 476.413 73.8694 474.381 75.8231C472.349 77.7767 471.177 80.5118 470.864 84.0284H456.212C456.525 79.1833 457.814 75.0025 460.08 71.486C462.425 67.8912 465.511 65.1171 469.341 63.1634C473.248 61.2098 477.702 60.2329 482.703 60.2329C490.909 60.2329 497.278 62.382 501.81 66.68C506.421 70.978 508.726 76.9562 508.726 84.6145V124H495.48ZM470.278 105.362C470.278 107.941 471.138 110.012 472.857 111.575C474.654 113.138 477.077 113.919 480.125 113.919C484.266 113.919 487.509 112.864 489.854 110.754C492.276 108.566 493.488 105.675 493.488 102.08V97.6258C491.612 97.3132 489.932 97.1178 488.447 97.0397C486.962 96.8834 485.517 96.8052 484.11 96.8052C479.578 96.8052 476.139 97.5085 473.795 98.9152C471.45 100.322 470.278 102.471 470.278 105.362ZM585.244 92.7026C585.244 98.8761 584.072 104.424 581.728 109.348C579.462 114.193 576.258 118.061 572.116 120.952C568.052 123.766 563.168 125.172 557.463 125.172C553.791 125.172 550.391 124.391 547.265 122.828C544.14 121.265 541.404 118.96 539.06 115.912V146.623H522.767V61.4051H537.771V70.5482C540.193 67.1879 543.085 64.6482 546.445 62.929C549.805 61.1316 553.478 60.2329 557.463 60.2329C563.09 60.2329 567.974 61.6786 572.116 64.57C576.258 67.3833 579.462 71.2515 581.728 76.1747C584.072 81.0198 585.244 86.529 585.244 92.7026ZM568.482 92.7026C568.482 86.8416 567.036 82.3873 564.145 79.3396C561.254 76.2138 557.815 74.6509 553.83 74.6509C551.251 74.6509 548.828 75.3542 546.562 76.7608C544.296 78.1674 542.499 80.1992 541.17 82.8562C539.842 85.435 539.177 88.7171 539.177 92.7026C539.177 96.6099 539.842 99.9311 541.17 102.666C542.499 105.323 544.257 107.316 546.445 108.644C548.711 109.973 551.173 110.637 553.83 110.637C557.815 110.637 561.254 109.152 564.145 106.183C567.036 103.135 568.482 98.6417 568.482 92.7026Z" fill="url(#paint2_linear_639_40)"/>
<defs>
<linearGradient id="paint0_linear_639_40" x1="-22.4221" y1="-37.5131" x2="118.046" y2="176.816" gradientUnits="userSpaceOnUse">
<stop stop-color="#1CF1D9"/>
<stop offset="1" stop-color="#1820D1"/>
</linearGradient>
<linearGradient id="paint1_linear_639_40" x1="-22.4221" y1="-37.5131" x2="118.046" y2="176.816" gradientUnits="userSpaceOnUse">
<stop stop-color="#1CF1D9"/>
<stop offset="1" stop-color="#1820D1"/>
</linearGradient>
<linearGradient id="paint2_linear_639_40" x1="88.2763" y1="-147.906" x2="268.057" y2="289.827" gradientUnits="userSpaceOnUse">
<stop offset="0.245689" stop-color="#1CF1D9"/>
<stop offset="1" stop-color="#1820D1"/>
</linearGradient>
</defs>
</svg>
