<svg width="590" height="158" viewBox="0 0 590 158" fill="none" xmlns="http://www.w3.org/2000/svg">
<path fill-rule="evenodd" clip-rule="evenodd" d="M24.3832 24C30.3077 17.3138 38.8129 13.4863 47.7463 13.4863H99.1929C127.003 13.4863 140.93 47.1095 121.265 66.7739L76.0594 111.98L47.4822 111.968L106.965 52.4735C113.889 45.5494 108.985 33.7102 99.1929 33.7102H47.7463C44.6007 33.7102 41.6059 35.0579 39.5198 37.4122L26.828 51.7359H0L24.3832 24Z" fill="url(#paint0_linear_137_389)"/>
<path fill-rule="evenodd" clip-rule="evenodd" d="M111.363 134C105.439 140.687 96.9336 144.514 88.0003 144.514H36.5537C8.7439 144.514 -5.18329 110.891 14.4812 91.2264L59.6871 46.0205L88.2643 46.0323L28.7817 105.527C21.8576 112.451 26.7615 124.29 36.5537 124.29H88.0003C91.1458 124.29 94.1406 122.942 96.2267 120.588L108.918 106.264H135.746L111.363 134Z" fill="white"/>
<path d="M225.189 124H170.8V39.8367H188.617V107.941H225.189V124ZM252.309 124H236.015V61.4049H252.309V124ZM254.888 46.8698C254.888 49.6049 253.872 51.9102 251.84 53.7857C249.886 55.5831 247.268 56.4817 243.986 56.4817C240.782 56.4817 238.164 55.5831 236.133 53.7857C234.179 51.9102 233.202 49.6049 233.202 46.8698C233.202 43.9784 234.179 41.634 236.133 39.8367C238.164 37.9612 240.782 37.0234 243.986 37.0234C247.268 37.0234 249.886 37.9612 251.84 39.8367C253.872 41.634 254.888 43.9784 254.888 46.8698ZM305.725 108.175V122.359C303.771 123.375 301.779 124.078 299.747 124.469C297.793 124.938 295.605 125.172 293.183 125.172C288.963 125.172 285.251 124.391 282.047 122.828C278.921 121.187 276.498 118.764 274.779 115.56C273.06 112.278 272.2 108.332 272.2 103.721V75.354H259.541V61.4049H272.2V42.8844H288.377V61.4049H306.311V75.354H288.377V99.9699C288.377 103.565 289.158 106.183 290.721 107.824C292.362 109.387 294.628 110.168 297.52 110.168C299.083 110.168 300.567 110.012 301.974 109.699C303.381 109.309 304.631 108.801 305.725 108.175ZM342.081 125.055C335.829 125.055 330.32 123.726 325.553 121.07C320.865 118.334 317.231 114.505 314.652 109.582C312.073 104.659 310.784 98.954 310.784 92.4679C310.784 86.2163 312.112 80.6679 314.769 75.8229C317.426 70.9778 321.099 67.1877 325.788 64.4526C330.476 61.6394 335.829 60.2327 341.847 60.2327C346.77 60.2327 351.224 61.1705 355.21 63.046C359.273 64.8434 362.673 67.4222 365.408 70.7824C368.143 74.1427 370.096 78.05 371.269 82.5043C372.441 86.8805 372.636 91.6083 371.855 96.6878H320.396V86.3725H354.624C354.467 81.9964 353.178 78.558 350.755 76.0573C348.411 73.4785 345.324 72.1891 341.495 72.1891C338.447 72.1891 335.869 72.9705 333.759 74.5334C331.649 76.0964 330.008 78.4017 328.835 81.4494C327.741 84.4189 327.194 88.0918 327.194 92.4679C327.194 96.766 327.741 100.4 328.835 103.369C329.929 106.339 331.571 108.605 333.759 110.168C335.947 111.731 338.604 112.513 341.729 112.513C345.324 112.513 348.294 111.653 350.638 109.934C352.983 108.215 354.624 105.831 355.561 102.783H371.738C369.94 109.817 366.463 115.287 361.305 119.194C356.147 123.101 349.739 125.055 342.081 125.055ZM446.652 124H380.306V109.934L423.326 55.1923H380.424V39.8367H445.246V54.1374L401.992 108.644H446.652V124ZM495.48 124V116.264C493.449 119.155 490.87 121.382 487.744 122.945C484.618 124.43 480.906 125.172 476.608 125.172C470.122 125.172 464.886 123.414 460.901 119.897C456.915 116.381 454.923 111.692 454.923 105.831C454.923 99.7355 457.345 95.0858 462.19 91.8818C467.035 88.6779 473.99 87.0759 483.055 87.0759C484.852 87.0759 486.572 87.154 488.213 87.3103C489.854 87.3884 491.612 87.5447 493.488 87.7792V84.0282C493.488 80.5116 492.55 77.7765 490.674 75.8229C488.799 73.8692 486.142 72.8924 482.703 72.8924C479.187 72.8924 476.413 73.8692 474.381 75.8229C472.349 77.7765 471.177 80.5116 470.864 84.0282H456.212C456.525 79.1831 457.814 75.0023 460.08 71.4858C462.425 67.891 465.511 65.1169 469.341 63.1632C473.248 61.2096 477.702 60.2327 482.703 60.2327C490.909 60.2327 497.278 62.3818 501.81 66.6798C506.421 70.9778 508.726 76.956 508.726 84.6143V124H495.48ZM470.278 105.362C470.278 107.941 471.138 110.012 472.857 111.575C474.654 113.138 477.077 113.919 480.125 113.919C484.266 113.919 487.509 112.864 489.854 110.754C492.276 108.566 493.488 105.675 493.488 102.08V97.6256C491.612 97.313 489.932 97.1176 488.447 97.0395C486.962 96.8832 485.517 96.805 484.11 96.805C479.578 96.805 476.139 97.5083 473.795 98.915C471.45 100.322 470.278 102.471 470.278 105.362ZM585.244 92.7024C585.244 98.8759 584.072 104.424 581.728 109.348C579.462 114.193 576.258 118.061 572.116 120.952C568.052 123.766 563.168 125.172 557.463 125.172C553.791 125.172 550.391 124.391 547.265 122.828C544.14 121.265 541.404 118.96 539.06 115.912V146.623H522.767V61.4049H537.771V70.548C540.193 67.1877 543.085 64.648 546.445 62.9288C549.805 61.1314 553.478 60.2327 557.463 60.2327C563.09 60.2327 567.974 61.6784 572.116 64.5698C576.258 67.3831 579.462 71.2513 581.728 76.1745C584.072 81.0196 585.244 86.5288 585.244 92.7024ZM568.482 92.7024C568.482 86.8414 567.036 82.3871 564.145 79.3394C561.254 76.2136 557.815 74.6507 553.83 74.6507C551.251 74.6507 548.828 75.354 546.562 76.7606C544.296 78.1672 542.499 80.199 541.17 82.856C539.842 85.4348 539.177 88.7169 539.177 92.7024C539.177 96.6097 539.842 99.9309 541.17 102.666C542.499 105.323 544.257 107.316 546.445 108.644C548.711 109.973 551.173 110.637 553.83 110.637C557.815 110.637 561.254 109.152 564.145 106.183C567.036 103.135 568.482 98.6415 568.482 92.7024Z" fill="white"/>
<defs>
<linearGradient id="paint0_linear_137_389" x1="-22.4221" y1="-37.5131" x2="118.046" y2="176.816" gradientUnits="userSpaceOnUse">
<stop offset="0.445" stop-color="#1CF1D9"/>
<stop offset="1" stop-color="#1820D1"/>
</linearGradient>
</defs>
</svg>
